<svg xmlns="http://www.w3.org/2000/svg" width="32" height="32"><path style="line-height:normal;text-indent:0;text-align:start;text-decoration-line:none;text-decoration-style:solid;text-decoration-color:#000;text-transform:none;block-progression:tb;white-space:normal;isolation:auto;mix-blend-mode:normal;solid-color:#000;solid-opacity:1" d="M15.992 0a.5.5 0 0 0-.492.508V1H15a.5.5 0 1 0 0 1h.5v2.135l-4.176 1.388a.5.5 0 0 0 .317.95l.359-.12v7.143l-2.68 1.03a.5.5 0 1 0 .36.933l1.32-.508v3.186l-2 .73v-1.385l.674-.263a.5.5 0 0 0-.182-.967.5.5 0 0 0-.181.037l-6.987 2.72a.5.5 0 1 0 .364.934l.312-.12v1.234l-2.664.972a.5.5 0 1 0 .342.94L1 22.852V31.5a.5.5 0 0 0 .5.5h29a.5.5 0 0 0 .5-.5v-8.646l.322.117a.5.5 0 1 0 .342-.94L29 21.06v-1.237l.313.121a.5.5 0 1 0 .363-.931l-6.988-2.723a.5.5 0 0 0-.196-.037.5.5 0 0 0-.168.969l.676.263v1.385l-2-.73v-3.182l1.307.502a.5.5 0 1 0 .357-.934L20 13.502v-7.14l.336.11a.5.5 0 0 0 .316-.949L16.5 4.143V2h.5a.5.5 0 1 0 0-1h-.5V.508A.5.5 0 0 0 15.992 0zm-.004 5.027L19 6.03v7.09l-1-.385V10c0-1.1-.9-2-2-2s-2 .9-2 2v2.729l-1 .384V6.021l2.988-.994zM16 9c.563 0 1 .437 1 1v2.35l-.828-.319a.5.5 0 0 0-.195-.029.5.5 0 0 0-.165.03l-.812.312V10c0-.563.437-1 1-1zm-.008 4.035L20 14.575V31h-1v-7.049C19 22.321 17.648 21 16 21s-3 1.32-3 2.951V31h-1V14.568l3.992-1.533zM16 15c-1.099 0-2 .901-2 2s.901 2 2 2 2-.901 2-2-.901-2-2-2zm0 1c.558 0 1 .442 1 1s-.442 1-1 1-1-.442-1-1 .442-1 1-1zm-8 1.871v1.361l-4 1.46v-1.26l4-1.56zm16 .002 4 1.559v1.261l-4-1.459v-1.361zm-13 1.328V31H2v-8.514l9-3.285zm10 .002 9 3.285V31h-9V19.203zM16 22c1.122 0 2 .868 2 1.951V31h-4v-7.049c0-1.083.878-1.951 2-1.951zM6 23c-1.104 0-2 .92-2 2.03V28H3v1h6v-1H8V25.03C8 23.92 7.104 23 6 23zm20 0c-1.104 0-2 .92-2 2.03V28h-1v1h6v-1h-1V25.03c0-1.11-.896-2.03-2-2.03zM6 24c.558 0 1 .446 1 1.03V28H5V25.03c0-.584.442-1.03 1-1.03zm20 0c.558 0 1 .446 1 1.03V28h-2V25.03c0-.584.442-1.03 1-1.03z" color="#000" enable-background="accumulate" font-family="sans-serif" font-weight="400" overflow="visible"/></svg>