<?xml version="1.0" encoding="utf-8"?>
<!-- Generator: Adobe Illustrator 25.2.1, SVG Export Plug-In . SVG Version: 6.00 Build 0)  -->
<svg version="1.1" id="Layer_1" xmlns="http://www.w3.org/2000/svg" xmlns:xlink="http://www.w3.org/1999/xlink" x="0px" y="0px"
	 viewBox="0 0 500 500" style="enable-background:new 0 0 500 500;" xml:space="preserve">
<style type="text/css">
	.st0{fill:#38BDF8;}
</style>
<path class="st0" d="M254.4,0.2c28.9,17,57.8,34.1,86.8,51c38.6,22.4,77.1,44.9,115.9,66.9c7.7,4.4,10.7,9.7,10.7,18.6
	c-0.3,75.4-0.3,150.8,0,226.1c0,9.4-3.3,14.6-11.3,19.2c-64.8,37.1-129.4,74.6-194,112c-2.8,1.6-5.4,3.4-8.2,5.2c-3.2,0-6.5,0-9.7,0
	c-2.4-1.9-4.7-4.1-7.3-5.7c-64.3-37.3-128.7-74.4-193-111.7c-4.1-2.4-7.6-5.9-11.3-8.8c0-82.2,0-164.4,0-246.6
	c3.6-2.7,6.9-5.8,10.7-8c34.2-20,68.6-39.7,102.9-59.6c33.4-19.4,66.7-39,100-58.5C249.2,0.2,251.8,0.2,254.4,0.2z M64.2,249.7
	c2.7,1.7,4,2.7,5.3,3.5C127.8,286.8,186,320.3,244,354.3c5.6,3.3,9.2,1.9,14-0.8c56.7-33,113.6-65.8,170.3-98.6
	c2.5-1.4,4.8-3,7.6-4.8c-1.5-1.2-2.4-2.1-3.5-2.7c-59-34.2-118-68.4-177.2-102.2c-2.7-1.6-8.1-0.9-11,0.7
	c-27.6,15.5-55,31.5-82.4,47.4C129.7,211.8,97.6,230.4,64.2,249.7z M447.1,268.4c-2.6,1.2-4.1,1.6-5.4,2.4
	c-58.5,33.8-117,67.6-175.3,101.7c-3,1.7-5.5,6.9-5.6,10.6c-0.5,23.3-0.3,46.6-0.3,69.9c0,5.6,0,11.2,0,18.6c5.2-3,8.5-4.8,11.8-6.7
	c49.5-28.6,98.4-58.5,148.9-85.3c20.5-10.9,28.8-23.2,26.3-46.3C445.3,312.1,447.1,290.7,447.1,268.4z M53.8,231
	c2.2-0.7,3.1-0.9,3.9-1.3c59.3-34.2,118.6-68.4,177.7-102.9c2.6-1.5,4.6-6,4.8-9.1c0.5-14.5,0.2-29.1,0.2-43.6c0-14.7,0-29.4,0-44.5
	c-2.2,0.5-3.2,0.6-3.9,1C177.2,64.7,117.9,98.9,58.8,133.3c-2.3,1.3-4.7,4.8-4.7,7.3C53.7,170.4,53.8,200.1,53.8,231z M260.5,28.7
	c0,30.2,0.2,58.6-0.2,87c-0.1,6.4,2,9.7,7.5,12.9C325,161.4,382,194.4,439,227.4c2.2,1.2,4.4,2.4,7.6,4.2c0.2-4.2,0.5-7.3,0.5-10.4
	c0-25.2-0.2-50.4,0.2-75.6c0.1-7.1-2.2-10.9-8.3-14.4c-56.6-32.4-113-65.2-169.5-97.8C267,31.9,264.5,30.7,260.5,28.7z M54.4,268.4
	c-0.2,3.8-0.6,6.6-0.6,9.4c0,25.9,0.2,51.8-0.2,77.6c-0.1,6.5,2.3,9.7,7.7,12.8c57.2,32.8,114.2,65.9,171.3,98.9
	c2.1,1.2,4.4,2,7.8,3.5c0-29.6-0.3-57.9,0.2-86.3c0.1-6.9-2.5-10.3-8.1-13.5c-56.6-32.5-113.1-65.3-169.6-97.9
	C60.4,271.5,57.9,270.2,54.4,268.4z"/>
</svg>
