<svg xmlns="http://www.w3.org/2000/svg" width="32" height="32"><path style="line-height:normal;text-indent:0;text-align:start;text-decoration-line:none;text-decoration-style:solid;text-decoration-color:#000;text-transform:none;block-progression:tb;white-space:normal;isolation:auto;mix-blend-mode:normal;solid-color:#000;solid-opacity:1" fill="#373449" d="M5.992 0c-.545 0-1 .455-1 1v4c0 .096.03.182.057.27a.5.5 0 0 0-.002.001.5.5 0 0 0-.055.229v21a.5.5 0 0 0 .057.229c-.026.088-.057.175-.057.271v4c0 .545.455 1 1 1h20.016c.545 0 1-.455 1-1v-4c0-.104-.03-.2-.06-.295a.5.5 0 0 0 .044-.205v-21a.5.5 0 0 0-.045-.209c.03-.094.06-.188.06-.291V1c0-.545-.454-1-1-1H5.993zm0 1h20.016v4H5.992V1zm4 1c-.546 0-1 .454-1 1s.454 1 1 1c.547 0 1-.454 1-1s-.453-1-1-1zm4 0c-.546 0-1 .454-1 1s.454 1 1 1c.547 0 1-.454 1-1s-.453-1-1-1zm4 0c-.546 0-1 .454-1 1s.454 1 1 1c.547 0 1-.454 1-1s-.453-1-1-1zm4 0c-.546 0-1 .454-1 1s.454 1 1 1c.547 0 1-.454 1-1s-.453-1-1-1zm-16 4h20v20h-20V6zm3.95 2.031a.5.5 0 0 0 .05 1h12a.5.5 0 1 0 0-1h-12a.5.5 0 0 0-.05 0zM8.491 10a.5.5 0 0 0-.5.5v13a.5.5 0 0 0 .5.5h14.985a.5.5 0 0 0 .5-.5v-13a.5.5 0 0 0-.5-.5H8.492zm.5 1h13.985v12H8.992V11zm-3 16h20.016v4H5.992v-4z" color="#000" enable-background="accumulate" font-family="sans-serif" font-weight="400" overflow="visible"/></svg>