<?xml version="1.0" encoding="utf-8"?>
<!-- Generator: Adobe Illustrator 25.2.1, SVG Export Plug-In . SVG Version: 6.00 Build 0)  -->
<svg version="1.1" id="Layer_1" xmlns="http://www.w3.org/2000/svg" xmlns:xlink="http://www.w3.org/1999/xlink" x="0px" y="0px"
	 viewBox="0 0 1359 259" style="enable-background:new 0 0 1359 259;" xml:space="preserve">
<style type="text/css">
	.st0{fill:#FFFFFF;}
	.st1{fill:#38bdf8;}
</style>
<g>
	<g>
		<path class="st0" d="M266.3,165.7l7.9-24.5c1.8,1.3,3.6,2.5,5.5,3.6c1.8,1.1,3.8,2.1,5.9,2.9c3.8,1.5,7,2.2,9.8,2.2
			c1.7,0,3-0.3,4-0.9c0.9-0.6,1.5-1.3,1.6-2.2c0.3-2-0.7-3.2-2.9-3.6l-2.7-0.5h-1.2l-1.6-0.3l-2.9-0.6l-4.8-1.2
			c-4.9-1.4-8.8-3.9-11.6-7.6c-2.8-3.7-4.2-8-4.2-12.9c0-4.1,1.1-8.1,3.3-12.1c2.7-5,6.9-8.9,12.7-11.6c5.7-2.7,12.9-4,21.5-4
			c1.1,0,2.2,0,3.3,0c1.1,0,2.4,0.1,3.9,0.3c6.5,0.6,13.1,2.3,19.6,5.1l2.9,1.3l-7.4,22.4l-2.8-1.5c-3.6-1.9-6.7-3.2-9.3-4.1
			c-2.6-0.9-4.6-1.3-6.1-1.3c-3.5,0-5.2,1.2-5.2,3.6c0,0.3,0.1,0.8,0.3,1.3c0.6,1.3,1.7,2.1,3.3,2.5l2.4,0.6l1.5,0.3l2.4,0.5
			l2.7,0.4l4.8,1.3l3.3,1.2c4,1.7,7.2,4.4,9.5,8c2.3,3.6,3.5,7.7,3.5,12c0,6.4-2.3,12.2-6.9,17.4c-2.9,3.3-6.8,5.9-11.7,7.7
			c-4.9,1.8-10.8,2.8-17.7,2.8c-2.7,0-5.6-0.2-8.6-0.5C284.2,172.7,274.8,170,266.3,165.7z"/>
		<path class="st0" d="M347.9,201.9V95.2h34.5v8.5c3.6-4.6,9.1-7.7,16.6-9.3c1.3-0.3,2.9-0.5,4.7-0.6c1.8-0.1,2.8-0.1,2.9-0.1
			c8.1,0,14.9,2.8,20.5,8.2c5.6,5.5,9.2,13.3,10.8,23.4c0.4,3.1,0.6,5.1,0.7,6.1c0,1,0.1,2,0.1,3.1c0,7.5-1.4,14.2-4.2,20
			c-2.8,5.9-6.6,10.3-11.5,13.4c-5.8,3.8-11.7,5.7-17.6,5.7c-7.3,0-13.9-2.7-19.8-7.9l-1.4-1.5v19.9L347.9,201.9z M391.1,145.1
			c1,0.2,1.6,0.3,1.9,0.3c4.6,0,7.3-2.9,8.1-8.9c0.1-0.4,0.1-0.8,0.1-1c0-0.5,0-0.8,0-1c0-0.4-0.1-1.1-0.3-2.1
			c-0.8-4.7-3.1-7.4-6.9-8.2c-2.6-0.5-4.9,0.2-6.8,2.2c-1.9,1.9-2.9,4.7-2.9,8.3c0,2.9,0.6,5.2,1.8,7.1
			C387.4,143.5,389,144.6,391.1,145.1z"/>
		<path class="st0" d="M503.5,102.2v-7h34.6v75.6h-34.6V163c-2.5,3.1-5.7,5.5-9.6,7.2s-8.4,2.5-13.5,2.5c-9.5,0-17.2-3.2-23.2-9.8
			c-6.5-7-9.8-16.6-9.8-28.8c0-12.2,3.2-22.1,9.6-29.7c6.4-7.6,14.3-11.4,23.7-11.4c2.1,0,4.4,0.3,7.1,0.8c2.6,0.5,5.3,1.5,8.2,3
			C498.9,98.3,501.4,100.1,503.5,102.2z M491.5,142.4c0.4,0.1,0.8,0.1,1,0.1s0.5,0,0.6,0c2.3,0,4.2-1,5.8-2.9c1.5-2,2.3-4.7,2.3-8.2
			c0-2.8-0.6-5-1.7-6.7c-1.2-1.7-2.8-2.7-4.9-3.2c-0.4-0.1-1-0.1-1.6-0.1c-4.7,0-7.5,3-8.2,9v1.9c0,2.9,0.6,5.2,1.7,7
			C487.6,141.1,489.3,142.1,491.5,142.4z"/>
		<path class="st0" d="M616.9,98.9l-8.1,26.8l-1.4-0.9c-2.8-1.6-5.1-2.6-6.9-3c-1.8-0.3-3.4-0.5-4.8-0.5c-3.5,0-6.3,1.6-8.4,4.6
			c-1.2,2.1-1.8,4.3-1.8,6.5c0,0.6,0.1,1.4,0.3,2.4c1.3,5.7,4.9,8.5,10.8,8.5c2.9,0,6-0.7,9.4-2.2l1.8-0.6l0.9-0.5l7.5,24.8
			c-1.9,1.4-4.2,2.7-6.8,3.8c-7.5,3.4-14.8,5.1-21.9,5.1c-14,0-25-6.1-33-18.3c-4.5-6.7-6.8-14.2-6.8-22.5c0-2.6,0.3-5.3,0.9-8.2
			c2-9.8,6.8-17.6,14.3-23.6c7.5-5.9,16.6-8.9,27.1-8.9c6.8,0,13.6,1.3,20.4,3.9c1.2,0.4,2.2,0.8,3.1,1.2
			C614.5,97.8,615.6,98.3,616.9,98.9z"/>
		<path class="st0" d="M703,122.8l-42,21.3l0.8,1c1.6,1.6,3.2,2.4,5,2.4c0.7,0,1.5-0.2,2.5-0.6c1-0.4,2-1.1,2.8-2.1l0.3-0.6l0.4-0.6
			l23.4,14.1c-3,4-6.7,7.3-11.1,10c-4.4,2.7-9.2,4.5-14.6,5.5c-2.8,0.5-5.4,0.8-7.8,0.8c-7.3,0-14.1-1.9-20.3-5.6
			c-13.2-7.5-19.8-18.8-19.8-33.8c0-2.3,0.2-4.9,0.8-7.9c1.3-8.5,4.9-15.8,10.8-21.8c5.9-6,13.1-9.8,21.6-11.4
			c2.6-0.4,4.4-0.6,5.5-0.7c1.1,0,1.9-0.1,2.5-0.1c2.7,0,5.3,0.3,8,0.9c14.3,3.1,24.2,11.4,29.8,24.9L703,122.8z M667,117.4
			c-2,0-3.5,0.2-4.4,0.5c-3,0.9-5.2,2.5-6.6,4.7c-1.4,2.2-2.1,4.4-2.1,6.6c0,0.8,0.2,1.9,0.6,3.3l20.7-10.5c-1-1.3-2.2-2.4-3.6-3.2
			C670.2,117.8,668.7,117.4,667,117.4z"/>
	</g>
</g>
<g>
	<g>
		<path class="st1" d="M708.4,123.2L758.8,60v35.1h17.6l-9.8,28.1h-7.8v47.5h-36.8v-47.5H708.4z"/>
		<path class="st1" d="M774.3,133.4c0-11.3,4.1-20.9,12.2-29c8.1-8,18-12.1,29.6-12.1c5.7,0,11.1,1.1,16.2,3.3
			c8,3.3,14.2,8.4,18.8,15.4c4.5,7,6.8,14.5,6.8,22.6c0,5.2-1,10.2-2.9,15.1c-1.9,4.9-4.9,9.3-8.9,13.3
			c-8.2,8.2-18.1,12.3-29.8,12.3s-21.6-4-29.7-12C778.3,154.4,774.3,144.7,774.3,133.4z M810.9,141.2c1.4,1.5,3.1,2.2,5.2,2.2
			c2.1,0,3.9-0.9,5.5-2.6c1.5-1.7,2.3-4.3,2.3-7.6c0-3.2-0.8-5.7-2.3-7.5c-1.6-1.8-3.4-2.7-5.5-2.7c-2.1,0-3.9,0.8-5.2,2.4
			c-1.8,2-2.7,4.6-2.7,7.8C808.2,136.6,809.1,139.2,810.9,141.2z"/>
		<path class="st1" d="M922,102.7v-7.5h34.6v66.3c0,12-5.1,21.4-15.3,28.3c-10.2,6.8-25.1,10.3-44.7,10.3c-5.3,0-10.3-0.6-14.8-1.9
			c-4.6-1.3-9.4-3.1-14.2-5.5l13.2-23.5c1.7,1.2,3.5,2.1,5.2,2.8c1.8,0.7,4.1,1.3,6.9,1.9l6.6,0.9c7.7,0,13.4-1,17-3
			c3.7-2,5.5-4.8,5.5-8.5v-4.5c-2.2,3-5.3,5.4-9.4,7.3c-4,1.9-8.6,2.8-13.7,2.8c-0.8,0-1.6,0-2.4,0c-1.2-0.2-2.1-0.3-2.7-0.3
			c-8-1-14.5-4.8-19.7-11.4c-5.1-6.6-7.6-14.9-7.6-25.1c0-2.4,0.1-4.9,0.5-7.5c1-8.1,3.8-14.8,8.3-20.1c4.5-5.3,10.3-8.8,17.3-10.3
			c1.1-0.3,2.2-0.5,3.4-0.6c1.2-0.1,2.6-0.1,4.2-0.1c1.7,0,3.4,0.1,5.1,0.4C912.3,95,917.8,98,922,102.7z M904,134.3
			c0.7,4.4,2.8,7.1,6.3,8c0.4,0.1,1.1,0.1,2,0.1c4.7,0,7.4-3,8-9v-3.8c-0.5-3.9-2.2-6.5-5.1-7.8c-0.9-0.3-1.8-0.5-2.7-0.5
			c-4.8,0-7.6,3.1-8.4,9.2v2.1V134.3z"/>
		<path class="st1" d="M1046.5,122.8l-42,21.3l0.8,1.1c1.6,1.6,3.2,2.4,5,2.4c0.7,0,1.5-0.2,2.5-0.6c1-0.4,2-1.1,2.8-2.1l0.3-0.6
			l0.5-0.6l23.4,14.1c-3,4-6.7,7.3-11.1,10c-4.4,2.7-9.3,4.5-14.5,5.5c-2.8,0.5-5.4,0.8-7.8,0.8c-7.3,0-14.1-1.9-20.2-5.5
			c-13.2-7.5-19.8-18.8-19.8-33.8c0-2.3,0.2-5,0.8-8c1.3-8.5,4.9-15.8,10.8-21.8c5.9-6,13.1-9.8,21.6-11.4c2.6-0.4,4.4-0.6,5.5-0.7
			c1,0,1.9-0.1,2.5-0.1c2.7,0,5.3,0.3,8,0.9c14.3,3.1,24.2,11.4,29.8,24.9L1046.5,122.8z M1010.5,117.4c-2,0-3.5,0.1-4.4,0.4
			c-3,0.9-5.2,2.5-6.6,4.7c-1.4,2.2-2.1,4.4-2.1,6.6c0,0.8,0.2,1.9,0.6,3.3l20.7-10.5c-1-1.3-2.2-2.4-3.6-3.2
			C1013.8,117.8,1012.2,117.4,1010.5,117.4z"/>
		<path class="st1" d="M1042.2,123.2l50.4-63.2v35.1h17.6l-9.8,28.1h-7.8v47.5h-36.8v-47.5H1042.2z"/>
		<path class="st1" d="M1109.1,170.8V79.7l36.8-20.4v42.2l0.9-1.1l1.2-1c2.4-2.1,5.1-3.7,8.1-4.8c4.2-1.5,8.2-2.2,12.2-2.2
			c7.5,0,13.7,2.5,18.5,7.5c4.8,5,7.2,11.4,7.2,19.2v51.7h-36.8v-38.9c0-5.6-2.2-8.1-6.6-7.5c-3.1,0.6-4.6,3.2-4.6,7.7v38.7H1109.1z
			"/>
		<path class="st1" d="M1283.7,122.8l-42,21.3l0.8,1.1c1.6,1.6,3.2,2.4,5,2.4c0.7,0,1.5-0.2,2.5-0.6c1-0.4,2-1.1,2.8-2.1l0.3-0.6
			l0.5-0.6l23.4,14.1c-3,4-6.7,7.3-11.1,10c-4.4,2.7-9.2,4.5-14.5,5.5c-2.8,0.5-5.4,0.8-7.8,0.8c-7.3,0-14.1-1.9-20.2-5.5
			c-13.2-7.5-19.8-18.8-19.8-33.8c0-2.3,0.2-5,0.8-8c1.3-8.5,4.9-15.8,10.8-21.8c5.9-6,13.1-9.8,21.6-11.4c2.6-0.4,4.4-0.6,5.5-0.7
			c1,0,1.9-0.1,2.5-0.1c2.7,0,5.3,0.3,8,0.9c14.3,3.1,24.2,11.4,29.8,24.9L1283.7,122.8z M1247.7,117.4c-2,0-3.5,0.1-4.4,0.4
			c-3,0.9-5.2,2.5-6.6,4.7c-1.4,2.2-2.1,4.4-2.1,6.6c0,0.8,0.2,1.9,0.6,3.3l20.7-10.5c-1-1.3-2.2-2.4-3.6-3.2
			C1250.9,117.8,1249.4,117.4,1247.7,117.4z"/>
		<path class="st1" d="M1288.5,170.8v-58.8l34.5-20.7v11.9l1.8-1.7c5.9-5.4,12.9-8.1,21.2-8.1c1.1,0,2,0,2.8,0
			c0.8,0,1.8,0.1,3.2,0.4c1.3,0.3,2.4,0.6,3.4,0.8c0.9,0.2,2.3,0.7,4,1.3l-11.6,34.8c-0.6-0.6-1.5-1.2-2.5-2
			c-1.1-0.7-2.2-1.3-3.4-1.7c-1.2-0.4-2.6-0.7-4.3-0.7c-3.1,0-5.7,0.9-7.9,2.8c-2.2,1.9-3.4,4-3.8,6.5c-0.4,2.5-0.6,5.1-0.6,7.9
			v27.3H1288.5z"/>
	</g>
</g>
<path class="st1" d="M128.7,1.2c14.9,8.8,29.8,17.6,44.7,26.3c19.9,11.6,39.7,23.1,59.7,34.5c4,2.3,5.5,5,5.5,9.6
	c-0.1,38.8-0.2,77.6,0,116.5c0,4.8-1.7,7.5-5.8,9.9c-33.4,19.1-66.6,38.4-99.9,57.7c-1.4,0.8-2.8,1.8-4.2,2.7c-1.7,0-3.3,0-5,0
	c-1.3-1-2.4-2.1-3.8-2.9c-33.1-19.2-66.3-38.3-99.4-57.5c-2.1-1.2-3.9-3-5.8-4.5c0-42.3,0-84.7,0-127c1.8-1.4,3.5-3,5.5-4.1
	c17.6-10.3,35.3-20.4,53-30.7c17.2-10,34.3-20.1,51.5-30.1C126.1,1.2,127.4,1.2,128.7,1.2z M30.8,129.7c1.4,0.9,2,1.4,2.7,1.8
	c30,17.3,60,34.6,89.9,52.1c2.9,1.7,4.7,1,7.2-0.4c29.2-17,58.5-33.9,87.7-50.8c1.3-0.7,2.5-1.6,3.9-2.5c-0.8-0.6-1.2-1.1-1.8-1.4
	c-30.4-17.6-60.8-35.2-91.3-52.6c-1.4-0.8-4.2-0.5-5.7,0.4c-14.2,8-28.3,16.2-42.4,24.4C64.5,110.2,47.9,119.8,30.8,129.7z
	 M228,139.4c-1.4,0.6-2.1,0.8-2.8,1.2C195,158,164.9,175.4,134.9,193c-1.5,0.9-2.8,3.6-2.9,5.5c-0.3,12-0.1,24-0.1,36
	c0,2.9,0,5.8,0,9.6c2.7-1.5,4.4-2.5,6.1-3.5c25.5-14.8,50.7-30.1,76.7-43.9c10.6-5.6,14.9-11.9,13.6-23.8
	C227.1,161.9,228,150.9,228,139.4z M25.4,120.1c1.1-0.4,1.6-0.4,2-0.7c30.5-17.6,61.1-35.2,91.5-53c1.3-0.8,2.4-3.1,2.5-4.7
	c0.3-7.5,0.1-15,0.1-22.5c0-7.6,0-15.1,0-22.9c-1.1,0.3-1.6,0.3-2,0.5C89,34.4,58.4,52.1,28,69.8c-1.2,0.7-2.4,2.5-2.4,3.8
	C25.4,88.9,25.4,104.2,25.4,120.1z M131.9,15.9c0,15.5,0.1,30.2-0.1,44.8c0,3.3,1,5,3.9,6.6c29.4,16.9,58.8,33.9,88.2,50.9
	c1.1,0.6,2.2,1.2,3.9,2.1c0.1-2.2,0.3-3.8,0.3-5.4c0-13-0.1-26,0.1-38.9c0.1-3.6-1.1-5.6-4.3-7.4c-29.2-16.7-58.2-33.6-87.3-50.4
	C135.2,17.6,133.9,17,131.9,15.9z M25.7,139.4c-0.1,2-0.3,3.4-0.3,4.8c0,13.3,0.1,26.7-0.1,40c-0.1,3.3,1.2,5,3.9,6.6
	c29.5,16.9,58.8,33.9,88.2,50.9c1.1,0.6,2.3,1,4,1.8c0-15.2-0.1-29.8,0.1-44.4c0.1-3.6-1.3-5.3-4.2-6.9
	c-29.2-16.7-58.3-33.6-87.4-50.4C28.8,141,27.5,140.3,25.7,139.4z"/>
<path class="st0" d="M119.5,0.8c14.9,8.8,29.8,17.6,44.7,26.3c19.9,11.6,39.7,23.1,59.7,34.5c4,2.3,5.5,5,5.5,9.6
	c-0.1,38.8-0.2,77.6,0,116.5c0,4.8-1.7,7.5-5.8,9.9c-33.4,19.1-66.6,38.4-99.9,57.7c-1.4,0.8-2.8,1.8-4.2,2.7c-1.7,0-3.3,0-5,0
	c-1.3-1-2.4-2.1-3.8-2.9c-33.1-19.2-66.3-38.3-99.4-57.5c-2.1-1.2-3.9-3-5.8-4.5c0-42.3,0-84.7,0-127c1.8-1.4,3.5-3,5.5-4.1
	C28.7,51.4,46.4,41.2,64,31c17.2-10,34.3-20.1,51.5-30.1C116.8,0.8,118.2,0.8,119.5,0.8z M21.6,129.3c1.4,0.9,2,1.4,2.7,1.8
	c30,17.3,60,34.6,89.9,52.1c2.9,1.7,4.7,1,7.2-0.4c29.2-17,58.5-33.9,87.7-50.8c1.3-0.7,2.5-1.6,3.9-2.5c-0.8-0.6-1.2-1.1-1.8-1.4
	c-30.4-17.6-60.8-35.2-91.3-52.6c-1.4-0.8-4.2-0.5-5.7,0.4c-14.2,8-28.3,16.2-42.4,24.4C55.3,109.8,38.7,119.4,21.6,129.3z
	 M218.8,139c-1.4,0.6-2.1,0.8-2.8,1.2c-30.1,17.4-60.3,34.8-90.3,52.4c-1.5,0.9-2.8,3.6-2.9,5.5c-0.3,12-0.1,24-0.1,36
	c0,2.9,0,5.8,0,9.6c2.7-1.5,4.4-2.5,6.1-3.5c25.5-14.8,50.7-30.1,76.7-43.9c10.6-5.6,14.9-11.9,13.6-23.8
	C217.8,161.5,218.8,150.5,218.8,139z M16.2,119.7c1.1-0.4,1.6-0.4,2-0.7c30.5-17.6,61.1-35.2,91.5-53c1.3-0.8,2.4-3.1,2.5-4.7
	c0.3-7.5,0.1-15,0.1-22.5c0-7.6,0-15.1,0-22.9c-1.1,0.3-1.6,0.3-2,0.5c-30.5,17.6-61.1,35.2-91.5,53c-1.2,0.7-2.4,2.5-2.4,3.8
	C16.2,88.5,16.2,103.8,16.2,119.7z M122.7,15.5c0,15.5,0.1,30.2-0.1,44.8c0,3.3,1,5,3.9,6.6c29.4,16.9,58.8,33.9,88.2,50.9
	c1.1,0.6,2.2,1.2,3.9,2.1c0.1-2.2,0.3-3.8,0.3-5.4c0-13-0.1-26,0.1-38.9c0.1-3.6-1.1-5.6-4.3-7.4c-29.2-16.7-58.2-33.6-87.3-50.4
	C126,17.2,124.7,16.6,122.7,15.5z M16.5,139c-0.1,2-0.3,3.4-0.3,4.8c0,13.3,0.1,26.7-0.1,40c-0.1,3.3,1.2,5,3.9,6.6
	c29.5,16.9,58.8,33.9,88.2,50.9c1.1,0.6,2.3,1,4,1.8c0-15.2-0.1-29.8,0.1-44.4c0.1-3.6-1.3-5.3-4.2-6.9
	C79.1,175,50,158.1,20.9,141.3C19.6,140.6,18.3,139.9,16.5,139z"/>
</svg>
