<svg xmlns="http://www.w3.org/2000/svg" enable-background="new 0 0 68 68" viewBox="0 0 68 68"><path d="M37.95582,66.88232c0.5522,0,1-0.4478,1-1v-2.3221l7.7915,3.3582c0.3929,0.16949,0.85471,0.07,1.1426-0.2534
		c0.2866-0.3218,0.3349-0.7905,0.12011-1.1641l-9.05421-15.7297v-9.2991h0.4604c1.086,0,1.96981-0.8837,1.96981-1.9702v-3.8696
		c0-1.0864-0.88381-1.9702-1.96981-1.9702h-0.4604v-7.4502h0.6948c0.8179,0,1.4834-0.6655,1.4834-1.4834v-4.6907
		c2.2011-0.4671,3.85889-2.4228,3.85889-4.761c0-2.685-2.1846-4.8696-4.8696-4.8696h-6.9261
		c-1.9478-4.9163-6.7394-8.4072-12.3405-8.4072c-0.5523,0-1,0.4477-1,1v24.5566c0,0.5523,0.4477,1,1,1
		c5.6022,0,10.3945-3.4924,12.3415-8.4101h1.58281v4.582c0,0.8179,0.66549,1.4834,1.48339,1.4834h0.6914v7.4502h-0.4497
		c-1.0864,0-1.9702,0.8838-1.9702,1.9702v3.8696c0,1.0865,0.8838,1.9702,1.9702,1.9702h0.4497v9.3058l-9.05079,15.723
		c-0.21481,0.3736-0.16651,0.8423,0.12009,1.1641c0.2857,0.3213,0.7442,0.4238,1.1426,0.2534l7.7881-3.3569v2.3208
		C36.95582,66.43452,37.40352,66.88232,37.95582,66.88232z M21.85672,25.51272V3.04392
		c5.8026,0.5123,10.27831,5.4247,10.27831,11.2344C32.13503,20.07192,27.67432,24.99911,21.85672,25.51272z M33.82302,11.40722
		h6.30029c1.5825,0,2.8696,1.2871,2.8696,2.8696s-1.2871,2.8697-2.8696,2.8697c-0.2328,0-6.4707,0-6.30029,0
		C34.22992,15.32062,34.20652,13.12842,33.82302,11.40722z M36.78102,19.14651h2.353v4.0654h-2.353V19.14651z M36.50612,34.66212
		c0.1242-0.0013,3.0337-0.0314,2.87991-0.0298v3.8403c-0.10821,0.001-1.21311,0.0075-2.85011,0.0293L36.50612,34.66212z
		 M44.77512,63.89062l-5.8193-2.5084v-7.6019L44.77512,63.89062z M31.13992,63.89011l5.8159-10.1032v7.5966L31.13992,63.89011z"/></svg>