<svg xmlns="http://www.w3.org/2000/svg" data-name="Layer 1" viewBox="0 0 512 512"><path d="M489.038,207H452V150.86c0-4.418-3.121-7.86-7.539-7.86H401.43c-.186,0-.369.015-.553.028-.183-.013-.366-.028-.552-.028H357.294A8.138,8.138,0,0,0,349,150.86V196H163V150.86a8.141,8.141,0,0,0-8.3-7.86H111.673c-.187,0-.369.015-.553.028-.183-.013-.366-.028-.553-.028H67.537C63.118,143,60,146.442,60,150.86V207H22.962C18.543,207,15,210.993,15,215.411v69.512A8.033,8.033,0,0,0,22.962,293H60v68.14c0,4.418,3.118,7.86,7.537,7.86h43.03c.187,0,.37-.015.553-.028.184.013.366.028.553.028H154.7a8.141,8.141,0,0,0,8.3-7.86V304H349v57.14a8.138,8.138,0,0,0,8.294,7.86h43.031c.186,0,.369-.015.552-.028.184.013.367.028.553.028h43.031c4.418,0,7.539-3.442,7.539-7.86V293h37.038A8.033,8.033,0,0,0,497,284.923V215.411C497,210.993,493.457,207,489.038,207ZM31,277V223H60v54Zm72,76H76V159h27Zm17,0V159h27v42.789a2.825,2.825,0,0,0-1,2.589v91.579a2.825,2.825,0,0,0,1,2.589V353Zm229-65H163V212H349Zm43,65H365V159h27Zm44,0H409V159h27Zm45-76H452V223h29Z"/></svg>